
        <svg xmlns="http://www.w3.org/2000/svg" xmlns:xlink="http://www.w3.org/1999/xlink" version="1.1" width="3162.1621621621625" 
        height="865.2461943501376" viewBox="0 0 3162.1621621621625 865.2461943501376">
			
			<g transform="scale(8.108108108108109) translate(10, 10)">
				<defs id="SvgjsDefs12382"></defs><g id="SvgjsG12383" featureKey="e7LhAk-0" transform="matrix(-1.1182516670286902,0,0,1.1182516670286902,105.91296727267638,-12.555730434051114)" fill="#ff8675"><g xmlns="http://www.w3.org/2000/svg"><path d="M10.469,42.037c1.152,0,2.288-0.392,3.188-1.102l0.131-0.101L13.7,57.471c-2.001,0.393-3.517,2.159-3.517,4.272v7.041   c0,1.757,1.048,3.273,2.549,3.961v14.22c0,0.998,0.809,1.807,1.808,1.807h7.618c0.996,0,1.805-0.809,1.805-1.807v-3.045h4.361   v3.045c0,0.998,0.809,1.807,1.807,1.807h7.619c0.998,0,1.807-0.809,1.807-1.807V73.139h21.37c3.308,5.402,9.172,8.714,15.556,8.714   c10.052,0,18.23-8.177,18.23-18.228c0-10.053-8.179-18.233-18.23-18.233c-7.681,0-14.538,4.868-17.135,11.995h-0.51l0.09-16.313   c0.878,0.629,1.939,0.978,3.025,0.978c1.563,0,3.026-0.691,4.011-1.894c0.877-1.066,1.282-2.414,1.145-3.793   c-0.137-1.378-0.799-2.618-1.866-3.495l-6.859-5.618V14.168c0-0.997-0.809-1.806-1.808-1.806h-9.307   c-0.999,0-1.808,0.809-1.808,1.806v2.505l-5.219-4.274c-0.92-0.755-2.084-1.171-3.279-1.171c-0.979,0-1.954,0.283-2.774,0.802   c-0.543,0.189-1.046,0.463-1.494,0.815L7.27,32.785c-1.089,0.852-1.778,2.079-1.944,3.456c-0.166,1.375,0.211,2.731,1.062,3.814   C7.374,41.314,8.863,42.037,10.469,42.037z M49.072,15.975h5.696v8.318l-5.696-4.666V15.975z M35.943,85.16h-4.006v-3.045   c0-0.998-0.809-1.806-1.807-1.806h-7.973c-0.998,0-1.807,0.809-1.807,1.806v3.045h-4.008V73.139h19.6V85.16z M60.664,61.001   c0.811,0,1.521-0.54,1.74-1.32c1.757-6.286,7.545-10.675,14.078-10.675c8.061,0,14.619,6.559,14.619,14.62   c0,8.059-6.559,14.615-14.619,14.615c-5.416,0-10.365-2.973-12.914-7.758c-0.313-0.589-0.927-0.957-1.594-0.957H37.75H14.54   c-0.403,0-0.742-0.34-0.742-0.742v-7.041c0-0.402,0.339-0.742,0.742-0.742h0.946c0.004,0,0.007,0,0.009,0h7.896h15.393H60.664z    M36.977,57.388H25.199v-13.3h11.777V57.388z M40.591,57.388V43.726c0-1.792-1.461-3.25-3.256-3.25H24.834   c-1.791,0-3.249,1.458-3.249,3.25v13.663h-4.273l0.103-19.397l19.273-15.116l18.646,15.273l-0.106,19.24H40.591z M8.91,36.674   c0.053-0.417,0.259-0.788,0.588-1.045l25.428-19.943c0.159-0.125,0.344-0.217,0.55-0.276c0.204-0.058,0.394-0.151,0.567-0.275   c0.261-0.19,0.588-0.294,0.92-0.294c0.256,0,0.635,0.061,0.988,0.352l25.001,20.472c0.669,0.549,0.769,1.537,0.218,2.204   c-0.296,0.363-0.739,0.571-1.217,0.571c-0.256,0-0.635-0.061-0.988-0.349l-2.635-2.157c-0.025-0.022-0.052-0.043-0.078-0.063   L37.856,19.162c-0.332-0.272-0.739-0.409-1.146-0.409c-0.394,0-0.787,0.128-1.114,0.385L14.499,35.687l-3.073,2.407   c-0.346,0.273-0.713,0.331-0.957,0.331c-0.489,0-0.939-0.218-1.238-0.6C8.975,37.499,8.86,37.09,8.91,36.674z"></path><path d="M50.782,39.468H45.16c-1.28,0-2.324,1.045-2.324,2.328v5.245c0,1.284,1.044,2.328,2.324,2.328h5.622   c1.285,0,2.329-1.044,2.329-2.328v-5.245C53.111,40.513,52.067,39.468,50.782,39.468z M49.497,45.756H46.45v-2.676h3.047V45.756z"></path><path d="M70.218,68.43c1.506,1.965,3.787,3.092,6.258,3.092c1.65,0,3.229-0.504,4.567-1.454c2.084-1.479,3.329-3.888,3.329-6.442   c0-4.351-3.543-7.891-7.896-7.891c-4.352,0-7.89,3.54-7.89,7.891c0,1.367,0.358,2.719,1.039,3.914   C69.8,67.849,70.002,68.148,70.218,68.43z M76.476,59.348c2.361,0,4.284,1.919,4.284,4.278c0,1.385-0.676,2.692-1.809,3.497   c-0.724,0.514-1.579,0.787-2.476,0.787c-1.338,0-2.573-0.612-3.392-1.678c-0.12-0.156-0.229-0.321-0.324-0.485   c-0.367-0.646-0.563-1.379-0.563-2.121C72.197,61.267,74.118,59.348,76.476,59.348z"></path></g></g><g id="SvgjsG12384" featureKey="Qg0WB5-0" transform="matrix(3.0581039755351687,0,0,3.0581039755351687,115.07645510752266,-5.076453532647651)" fill="#ffffff"><path d="M1.61 5.609999999999999 q0 -0.21 0.115 -0.335 t0.325 -0.125 l9.93 0 q0.22 0 0.34 0.13 t0.12 0.35 l0 2.48 q0 0.17 -0.12 0.325 t-0.35 0.155 l-6.48 0 l0 2.47 l5 0 q0.19 0 0.315 0.09 t0.125 0.3 l0 2.16 q0 0.14 -0.11 0.27 t-0.32 0.13 l-5.01 0 l0 2.55 l6.72 0 q0.45 0 0.45 0.46 l0 2.52 q0 0.1 -0.08 0.18 q-0.04 0.28 -0.41 0.28 l-10.12 0 q-0.2 0 -0.32 -0.105 t-0.12 -0.325 l0 -13.96 z M14.96 7.470000000000001 q0.13 -0.11 0.275 -0.14 t0.275 -0.03 l1.51 0 q0.18 0 0.31 0.065 t0.22 0.175 t0.145 0.25 t0.105 0.29 l0.31 1.28 q0.15 -0.31 0.435 -0.705 t0.725 -0.74 t1.045 -0.58 t1.405 -0.235 q1.14 0 2.07 0.44 t1.585 1.2 t1.015 1.775 t0.36 2.165 l0 6.55 q0 0.38 -0.165 0.575 t-0.525 0.195 l-2.31 0 q-0.43 0 -0.59 -0.145 t-0.16 -0.565 l0 -6.51 q0 -0.43 -0.195 -0.815 t-0.515 -0.68 t-0.725 -0.465 t-0.825 -0.17 q-0.36 0 -0.735 0.16 t-0.69 0.445 t-0.53 0.67 t-0.245 0.835 l0 6.5 q0 0.17 -0.065 0.34 t-0.195 0.26 q-0.13 0.08 -0.245 0.11 t-0.265 0.03 l-2.26 0 q-0.43 0 -0.62 -0.21 t-0.19 -0.56 l0 -11.19 q0 -0.19 0.085 -0.35 t0.235 -0.25 z M40.89 6.23 q0.17 0.1 0.25 0.26 t-0.03 0.38 l-1.69 2.4 q-0.11 0.17 -0.235 0.195 t-0.305 -0.085 q-0.49 -0.37 -1.08 -0.57 t-1.25 -0.2 q-0.82 0 -1.51 0.31 t-1.19 0.85 t-0.78 1.26 t-0.28 1.54 t0.28 1.535 t0.78 1.25 t1.19 0.845 t1.51 0.31 q0.66 0 1.26 -0.205 t1.09 -0.575 q0.18 -0.11 0.3 -0.09 t0.24 0.18 l1.71 2.46 q0.11 0.22 0.03 0.37 t-0.25 0.25 q-0.94 0.63 -2.025 0.975 t-2.285 0.345 q-1.06 0 -2.035 -0.27 t-1.825 -0.77 t-1.545 -1.195 t-1.195 -1.54 t-0.77 -1.82 t-0.27 -2.035 t0.27 -2.035 t0.77 -1.83 t1.195 -1.555 t1.545 -1.195 t1.825 -0.77 t2.035 -0.275 q1.2 0 2.265 0.335 t2.005 0.965 z M56.31 19.26 q0 0.17 -0.06 0.325 t-0.2 0.245 q-0.11 0.11 -0.26 0.14 t-0.26 0.03 l-1.97 0 q-0.21 0 -0.34 -0.055 t-0.21 -0.155 t-0.135 -0.245 t-0.115 -0.315 l-0.29 -0.75 q-0.27 0.27 -0.59 0.575 t-0.705 0.565 t-0.835 0.435 t-0.96 0.175 q-0.91 0 -1.745 -0.23 t-1.56 -0.655 t-1.315 -1.02 t-1.015 -1.325 t-0.655 -1.575 t-0.23 -1.765 q0 -1.39 0.51 -2.585 t1.39 -2.08 t2.07 -1.39 t2.55 -0.505 q0.62 0 1.14 0.185 t0.945 0.485 t0.77 0.68 t0.615 0.77 l0.39 -1.21 q0.1 -0.25 0.165 -0.405 t0.14 -0.23 t0.185 -0.1 t0.31 -0.025 l1.49 0 q0.11 0 0.26 0.03 t0.26 0.14 q0.14 0.11 0.2 0.25 t0.06 0.32 l0 11.27 z M46.46000000000001 13.66 q0 0.66 0.205 1.235 t0.585 0.995 t0.915 0.665 t1.185 0.245 q0.67 0 1.245 -0.245 t1 -0.665 t0.665 -0.995 t0.24 -1.235 q0 -0.64 -0.24 -1.22 t-0.665 -1.02 t-1 -0.695 t-1.245 -0.255 q-0.65 0 -1.185 0.255 t-0.915 0.695 t-0.585 1.02 t-0.205 1.22 z M60.61000000000001 16.05 q0.27 0.27 0.585 0.455 t0.605 0.3 t0.51 0.165 t0.3 0.05 q0.19 0 0.485 -0.015 t0.565 -0.09 t0.465 -0.245 t0.195 -0.48 q0 -0.28 -0.11 -0.445 t-0.32 -0.28 t-0.515 -0.205 t-0.685 -0.21 q-1.2 -0.32 -1.98 -0.77 t-1.235 -1.005 t-0.635 -1.195 t-0.18 -1.35 q0 -0.83 0.33 -1.51 t0.94 -1.165 t1.46 -0.75 t1.89 -0.265 q0.63 0 1.18 0.105 t1.05 0.33 t0.975 0.58 t0.945 0.845 q0.17 0.2 0.175 0.375 t-0.225 0.375 q-0.39 0.32 -0.745 0.63 t-0.735 0.69 q-0.12 0.1 -0.24 0.125 t-0.23 -0.005 t-0.21 -0.1 t-0.18 -0.17 q-0.35 -0.39 -0.8 -0.525 t-0.84 -0.135 q-0.49 0 -0.78 0.17 t-0.27 0.52 q0.02 0.26 0.195 0.405 t0.43 0.235 t0.54 0.145 t0.525 0.125 q0.9 0.29 1.65 0.63 t1.3 0.835 t0.855 1.185 t0.305 1.68 t-0.395 1.77 t-1.085 1.31 t-1.635 0.81 t-2.035 0.28 q-0.62 0 -1.26 -0.11 t-1.24 -0.355 t-1.14 -0.63 t-0.96 -0.935 q-0.11 -0.14 -0.165 -0.295 t-0.05 -0.305 t0.06 -0.275 t0.175 -0.215 l1.29 -1.29 q0.24 -0.2 0.425 -0.14 t0.475 0.34 z M83.36 19.26 q0 0.17 -0.06 0.325 t-0.2 0.245 q-0.11 0.11 -0.26 0.14 t-0.26 0.03 l-1.97 0 q-0.21 0 -0.34 -0.055 t-0.21 -0.155 t-0.135 -0.245 t-0.115 -0.315 l-0.29 -0.75 q-0.27 0.27 -0.59 0.575 t-0.705 0.565 t-0.835 0.435 t-0.96 0.175 q-0.91 0 -1.745 -0.23 t-1.56 -0.655 t-1.315 -1.02 t-1.015 -1.325 t-0.655 -1.575 t-0.23 -1.765 q0 -1.39 0.51 -2.585 t1.39 -2.08 t2.07 -1.39 t2.55 -0.505 q0.62 0 1.14 0.185 t0.945 0.485 t0.77 0.68 t0.615 0.77 l0.39 -1.21 q0.1 -0.25 0.165 -0.405 t0.14 -0.23 t0.185 -0.1 t0.31 -0.025 l1.49 0 q0.11 0 0.26 0.03 t0.26 0.14 q0.14 0.11 0.2 0.25 t0.06 0.32 l0 11.27 z M73.51 13.66 q0 0.66 0.205 1.235 t0.585 0.995 t0.915 0.665 t1.185 0.245 q0.67 0 1.245 -0.245 t1 -0.665 t0.665 -0.995 t0.24 -1.235 q0 -0.64 -0.24 -1.22 t-0.665 -1.02 t-1 -0.695 t-1.245 -0.255 q-0.65 0 -1.185 0.255 t-0.915 0.695 t-0.585 1.02 t-0.205 1.22 z"></path></g><g id="SvgjsG12385" featureKey="sloganFeature-0" transform="matrix(0.5680825121498877,0,0,0.5680825121498877,119.12515322384264,65.01188666871637)" fill="#ffffff"><path d="M10.98 11.58 l0 -5.94 l1.94 0 l0 14.36 l-1.94 0 l0 -6.7 l-7.5 0 l0 6.7 l-1.94 0 l0 -14.36 l1.94 0 l0 5.94 l7.5 0 z M27.22 12.82 c0 -3.38 -1.88 -5.84 -5 -5.84 s-5 2.46 -5 5.84 s1.88 5.84 5 5.84 s5 -2.46 5 -5.84 z M29.22 12.82 c0 3.1 -1.64 7.56 -7 7.56 s-7 -4.46 -7 -7.56 s1.64 -7.56 7 -7.56 s7 4.46 7 7.56 z M37.78 13.98 l0 -1.66 l6.3 0 l0 7.68 l-1.26 0 l-0.46 -1.86 c-0.98 1.36 -2.78 2.24 -4.74 2.24 c-2.46 0 -3.66 -0.9 -4.4 -1.62 c-2.2 -2.08 -2.26 -4.54 -2.26 -6.06 c0 -3.5 2.12 -7.44 6.8 -7.44 c2.68 0 5.66 1.52 6.08 4.74 l-1.88 0 c-0.62 -2.5 -2.72 -3.02 -4.3 -3.02 c-2.58 0 -4.7 2.06 -4.7 5.82 c0 2.92 0.96 5.92 4.78 5.92 c0.72 0 1.88 -0.08 2.94 -0.92 c1.26 -1 1.58 -2.28 1.58 -3.82 l-4.48 0 z M55.1 15.82 l-5.76 0 l-1.5 4.18 l-2 0 l5.4 -14.36 l2.2 0 l5.2 14.36 l-2.12 0 z M49.940000000000005 14.1 l4.46 0 l-2.12 -6.32 l-0.04 0 z M62.60000000000001 13.84 l0 6.16 l-1.94 0 l0 -14.36 l6.64 0 c2.36 0 4.72 0.82 4.72 3.86 c0 2.12 -1.08 2.9 -2 3.44 c0.82 0.34 1.64 0.7 1.72 2.7 l0.12 2.6 c0.02 0.8 0.12 1.1 0.72 1.44 l0 0.32 l-2.38 0 c-0.28 -0.88 -0.34 -3.06 -0.34 -3.6 c0 -1.18 -0.24 -2.56 -2.56 -2.56 l-4.7 0 z M62.60000000000001 7.300000000000001 l0 4.88 l4.5 0 c1.42 0 2.92 -0.36 2.92 -2.48 c0 -2.22 -1.62 -2.4 -2.58 -2.4 l-4.84 0 z M75.08 20 l0 -2.12 l2.08 0 l0 1.96 c0 2.72 -1.68 3.04 -2.08 3.1 l0 -0.92 c0.84 -0.08 1.06 -1.08 1.06 -2.02 l-1.06 0 z M86.08000000000001 20 l0 -14.36 l5.82 0 c3.74 0 6.04 2.84 6.04 6.98 c0 3.22 -1.4 7.38 -6.12 7.38 l-5.74 0 z M88.02000000000001 7.300000000000001 l0 11.04 l3.76 0 c2.52 0 4.16 -1.98 4.16 -5.6 s-1.66 -5.44 -4.3 -5.44 l-3.62 0 z M109.84 5.640000000000001 l1.94 0 l0 9.32 c0 2.94 -1.84 5.42 -5.78 5.42 c-3.86 0 -5.52 -2.48 -5.52 -5.16 l0 -9.58 l1.94 0 l0 9.04 c0 3.12 1.9 3.98 3.64 3.98 c1.78 0 3.78 -0.82 3.78 -3.94 l0 -9.08 z M116.8 5.640000000000001 l0 12.64 l7.28 0 l0 1.72 l-9.22 0 l0 -14.36 l1.94 0 z M137.94 9.96 l-1.88 0 c-0.54 -2.52 -2.64 -2.98 -4.02 -2.98 c-2.6 0 -4.7 1.92 -4.7 5.7 c0 3.38 1.2 5.98 4.76 5.98 c1.26 0 3.44 -0.6 4.1 -3.94 l1.88 0 c-0.8 5.42 -5.2 5.66 -6.28 5.66 c-3.26 0 -6.46 -2.12 -6.46 -7.64 c0 -4.42 2.52 -7.48 6.7 -7.48 c3.7 0 5.62 2.3 5.9 4.7 z M151.22 18.28 l0 1.72 l-10.6 0 l0 -14.36 l10.46 0 l0 1.72 l-8.52 0 l0 4.4 l7.86 0 l0 1.72 l-7.86 0 l0 4.8 l8.66 0 z M168.78 11.58 l0 -5.94 l1.94 0 l0 14.36 l-1.94 0 l0 -6.7 l-7.5 0 l0 6.7 l-1.94 0 l0 -14.36 l1.94 0 l0 5.94 l7.5 0 z M185.02 12.82 c0 -3.38 -1.88 -5.84 -5 -5.84 s-5 2.46 -5 5.84 s1.88 5.84 5 5.84 s5 -2.46 5 -5.84 z M187.02 12.82 c0 3.1 -1.64 7.56 -7 7.56 s-7 -4.46 -7 -7.56 s1.64 -7.56 7 -7.56 s7 4.46 7 7.56 z M195.58 13.98 l0 -1.66 l6.3 0 l0 7.68 l-1.26 0 l-0.46 -1.86 c-0.98 1.36 -2.78 2.24 -4.74 2.24 c-2.46 0 -3.66 -0.9 -4.4 -1.62 c-2.2 -2.08 -2.26 -4.54 -2.26 -6.06 c0 -3.5 2.12 -7.44 6.8 -7.44 c2.68 0 5.66 1.52 6.08 4.74 l-1.88 0 c-0.62 -2.5 -2.72 -3.02 -4.3 -3.02 c-2.58 0 -4.7 2.06 -4.7 5.82 c0 2.92 0.96 5.92 4.78 5.92 c0.72 0 1.88 -0.08 2.94 -0.92 c1.26 -1 1.58 -2.28 1.58 -3.82 l-4.48 0 z M212.9 15.82 l-5.76 0 l-1.5 4.18 l-2 0 l5.4 -14.36 l2.2 0 l5.2 14.36 l-2.12 0 z M207.74 14.1 l4.46 0 l-2.12 -6.32 l-0.04 0 z M220.4 13.84 l0 6.16 l-1.94 0 l0 -14.36 l6.64 0 c2.36 0 4.72 0.82 4.72 3.86 c0 2.12 -1.08 2.9 -2 3.44 c0.82 0.34 1.64 0.7 1.72 2.7 l0.12 2.6 c0.02 0.8 0.12 1.1 0.72 1.44 l0 0.32 l-2.38 0 c-0.28 -0.88 -0.34 -3.06 -0.34 -3.6 c0 -1.18 -0.24 -2.56 -2.56 -2.56 l-4.7 0 z M220.4 7.300000000000001 l0 4.88 l4.5 0 c1.42 0 2.92 -0.36 2.92 -2.48 c0 -2.22 -1.62 -2.4 -2.58 -2.4 l-4.84 0 z"></path></g>
			</g>
		</svg>
	